#Comment line ignore any data following # character 
#Hierarchical Translation and Rotation (.htr) file 
[Header]	
#Header keywords are followed by a single value 
FileType HTR		#Single word string
DataType HTRS		#Translation followed by rotation and scale data
FileVersion 1		#integer
NumSegments 84		#integer
NumFrames 2		#integer
DataFrameRate 30		#integer, data frame rate in this file
EulerRotationOrder ZYX
CalibrationUnits mm
RotationUnits Degrees
GlobalAxisofGravity Y
BoneLengthAxis Y
ScaleFactor 1.00
[SegmentNames&Hierarchy]
#CHILD	PARENT
MASTER GLOBAL
root MASTER
chest root
L_mid_tent01 root
R_mid_tent01 root
spine01 root
Bip01_Neck chest
L_humerus chest
R_humerus chest
weapon_bone chest
Bip01_Head Bip01_Neck
eye_left_bone Bip01_Head
eye_right_bone Bip01_Head
L_forearm L_humerus
L_front_hand L_forearm
L_weapon_bone L_forearm
L_front_hand01_01 L_front_hand
L_front_hand02_01 L_front_hand
L_front_hand03_01 L_front_hand
L_front_hand01_02 L_front_hand01_01
L_front_hand02_02 L_front_hand02_01
L_front_hand03_02 L_front_hand03_01
R_forearm R_humerus
R_front_hand R_forearm
R_weapon_bone R_forearm
R_front_hand01_01 R_front_hand
R_front_hand02_01 R_front_hand
R_front_hand03_01 R_front_hand
R_front_hand01_02 R_front_hand01_01
R_front_hand02_02 R_front_hand02_01
R_front_hand03_02 R_front_hand03_01
null_rope01_connect L_mid_tent01
Rope1_Seg01 null_rope01_connect
Rope1_Seg02 Rope1_Seg01
Rope1_Seg03 Rope1_Seg02
Rope1_Seg04 Rope1_Seg03
Rope1_Seg05 Rope1_Seg04
Rope1_Seg06 Rope1_Seg05
Rope1_Seg07 Rope1_Seg06
Rope1_Seg09 Rope1_Seg07
L_mid_hand01 Rope1_Seg09
L_mid_hand02 Rope1_Seg09
L_mid_hand03 Rope1_Seg09
null_rope02_connect R_mid_tent01
Rope2_Seg01 null_rope02_connect
Rope2_Seg02 Rope2_Seg01
Rope2_Seg03 Rope2_Seg02
Rope2_Seg04 Rope2_Seg03
Rope2_Seg05 Rope2_Seg04
Rope2_Seg06 Rope2_Seg05
Rope2_Seg07 Rope2_Seg06
Rope2_Seg09 Rope2_Seg07
R_mid_hand01 Rope2_Seg09
R_mid_hand02 Rope2_Seg09
R_mid_hand03 Rope2_Seg09
spine02 spine01
spine03 spine02
pelvis spine03
null_rope03_connect pelvis
null_rope04_connect pelvis
Rope3_Seg01 null_rope03_connect
Rope3_Seg02 Rope3_Seg01
Rope3_Seg03 Rope3_Seg02
Rope3_Seg04 Rope3_Seg03
Rope3_Seg05 Rope3_Seg04
Rope3_Seg06 Rope3_Seg05
Rope3_Seg07 Rope3_Seg06
Rope3_Seg08 Rope3_Seg07
Rope3_Seg09 Rope3_Seg08
R_rear_hand01 Rope3_Seg09
R_rear_hand02 Rope3_Seg09
R_rear_hand03 Rope3_Seg09
Rope4_Seg01 null_rope04_connect
Rope4_Seg02 Rope4_Seg01
Rope4_Seg03 Rope4_Seg02
Rope4_Seg04 Rope4_Seg03
Rope4_Seg05 Rope4_Seg04
Rope4_Seg06 Rope4_Seg05
Rope4_Seg07 Rope4_Seg06
Rope4_Seg08 Rope4_Seg07
Rope4_Seg09 Rope4_Seg08
L_rear_hand01 Rope4_Seg09
L_rear_hand02 Rope4_Seg09
L_rear_hand03 Rope4_Seg09
[BasePosition]
#SegmentName Tx, Ty, Tz, Rx, Ry, Rz, BoneLength
MASTER 0.000000 0.000000 0.000000 -90.000000 0.000000 0.000000 10.000000 
root 0.000000 0.000000 0.000000 0.000000 0.000000 0.000000 10.000000 
chest 0.000000 0.000000 0.000000 0.000000 0.000000 0.000000 10.000000 
L_mid_tent01 0.000000 0.000000 0.000000 0.000000 0.000000 0.000000 10.000000 
R_mid_tent01 0.000000 0.000000 0.000000 0.000000 0.000000 0.000000 10.000000 
spine01 0.000000 0.000000 0.000000 0.000000 0.000000 0.000000 10.000000 
Bip01_Neck 0.000000 0.000000 0.000000 0.000000 0.000000 0.000000 10.000000 
L_humerus 0.000000 0.000000 0.000000 0.000000 0.000000 0.000000 10.000000 
R_humerus 0.000000 0.000000 0.000000 0.000000 0.000000 0.000000 10.000000 
weapon_bone 0.000000 0.000000 0.000000 0.000000 0.000000 0.000000 10.000000 
Bip01_Head 0.000000 0.000000 0.000000 0.000000 0.000000 0.000000 10.000000 
eye_left_bone 0.000000 0.000000 0.000000 0.000000 0.000000 0.000000 10.000000 
eye_right_bone 0.000000 0.000000 0.000000 0.000000 0.000000 0.000000 10.000000 
L_forearm 0.000000 0.000000 0.000000 0.000000 0.000000 0.000000 10.000000 
L_front_hand 0.000000 0.000000 0.000000 0.000000 0.000000 0.000000 10.000000 
L_weapon_bone 0.000000 0.000000 0.000000 0.000000 0.000000 0.000000 10.000000 
L_front_hand01_01 0.000000 0.000000 0.000000 0.000000 0.000000 0.000000 10.000000 
L_front_hand02_01 0.000000 0.000000 0.000000 0.000000 0.000000 0.000000 10.000000 
L_front_hand03_01 0.000000 0.000000 0.000000 0.000000 0.000000 0.000000 10.000000 
L_front_hand01_02 0.000000 0.000000 0.000000 0.000000 0.000000 0.000000 10.000000 
L_front_hand02_02 0.000000 0.000000 0.000000 0.000000 0.000000 0.000000 10.000000 
L_front_hand03_02 0.000000 0.000000 0.000000 0.000000 0.000000 0.000000 10.000000 
R_forearm 0.000000 0.000000 0.000000 0.000000 0.000000 0.000000 10.000000 
R_front_hand 0.000000 0.000000 0.000000 0.000000 0.000000 0.000000 10.000000 
R_weapon_bone 0.000000 0.000000 0.000000 0.000000 0.000000 0.000000 10.000000 
R_front_hand01_01 0.000000 0.000000 0.000000 0.000000 0.000000 0.000000 10.000000 
R_front_hand02_01 0.000000 0.000000 0.000000 0.000000 0.000000 0.000000 10.000000 
R_front_hand03_01 0.000000 0.000000 0.000000 0.000000 0.000000 0.000000 10.000000 
R_front_hand01_02 0.000000 0.000000 0.000000 0.000000 0.000000 0.000000 10.000000 
R_front_hand02_02 0.000000 0.000000 0.000000 0.000000 0.000000 0.000000 10.000000 
R_front_hand03_02 0.000000 0.000000 0.000000 0.000000 0.000000 0.000000 10.000000 
null_rope01_connect 0.000000 0.000000 0.000000 0.000000 0.000000 0.000000 10.000000 
Rope1_Seg01 0.000000 0.000000 0.000000 0.000000 0.000000 0.000000 10.000000 
Rope1_Seg02 0.000000 0.000000 0.000000 0.000000 0.000000 0.000000 10.000000 
Rope1_Seg03 0.000000 0.000000 0.000000 0.000000 0.000000 0.000000 10.000000 
Rope1_Seg04 0.000000 0.000000 0.000000 0.000000 0.000000 0.000000 10.000000 
Rope1_Seg05 0.000000 0.000000 0.000000 0.000000 0.000000 0.000000 10.000000 
Rope1_Seg06 0.000000 0.000000 0.000000 0.000000 0.000000 0.000000 10.000000 
Rope1_Seg07 0.000000 0.000000 0.000000 0.000000 0.000000 0.000000 10.000000 
Rope1_Seg09 0.000000 0.000000 0.000000 0.000000 0.000000 0.000000 10.000000 
L_mid_hand01 0.000000 0.000000 0.000000 0.000000 0.000000 0.000000 10.000000 
L_mid_hand02 0.000000 0.000000 0.000000 0.000000 0.000000 0.000000 10.000000 
L_mid_hand03 0.000000 0.000000 0.000000 0.000000 0.000000 0.000000 10.000000 
null_rope02_connect 0.000000 0.000000 0.000000 0.000000 0.000000 0.000000 10.000000 
Rope2_Seg01 0.000000 0.000000 0.000000 0.000000 0.000000 0.000000 10.000000 
Rope2_Seg02 0.000000 0.000000 0.000000 0.000000 0.000000 0.000000 10.000000 
Rope2_Seg03 0.000000 0.000000 0.000000 0.000000 0.000000 0.000000 10.000000 
Rope2_Seg04 0.000000 0.000000 0.000000 0.000000 0.000000 0.000000 10.000000 
Rope2_Seg05 0.000000 0.000000 0.000000 0.000000 0.000000 0.000000 10.000000 
Rope2_Seg06 0.000000 0.000000 0.000000 0.000000 0.000000 0.000000 10.000000 
Rope2_Seg07 0.000000 0.000000 0.000000 0.000000 0.000000 0.000000 10.000000 
Rope2_Seg09 0.000000 0.000000 0.000000 0.000000 0.000000 0.000000 10.000000 
R_mid_hand01 0.000000 0.000000 0.000000 0.000000 0.000000 0.000000 10.000000 
R_mid_hand02 0.000000 0.000000 0.000000 0.000000 0.000000 0.000000 10.000000 
R_mid_hand03 0.000000 0.000000 0.000000 0.000000 0.000000 0.000000 10.000000 
spine02 0.000000 0.000000 0.000000 0.000000 0.000000 0.000000 10.000000 
spine03 0.000000 0.000000 0.000000 0.000000 0.000000 0.000000 10.000000 
pelvis 0.000000 0.000000 0.000000 0.000000 0.000000 0.000000 10.000000 
null_rope03_connect 0.000000 0.000000 0.000000 0.000000 0.000000 0.000000 10.000000 
null_rope04_connect 0.000000 0.000000 0.000000 0.000000 0.000000 0.000000 10.000000 
Rope3_Seg01 0.000000 0.000000 0.000000 0.000000 0.000000 0.000000 10.000000 
Rope3_Seg02 0.000000 0.000000 0.000000 0.000000 0.000000 0.000000 10.000000 
Rope3_Seg03 0.000000 0.000000 0.000000 0.000000 0.000000 0.000000 10.000000 
Rope3_Seg04 0.000000 0.000000 0.000000 0.000000 0.000000 0.000000 10.000000 
Rope3_Seg05 0.000000 0.000000 0.000000 0.000000 0.000000 0.000000 10.000000 
Rope3_Seg06 0.000000 0.000000 0.000000 0.000000 0.000000 0.000000 10.000000 
Rope3_Seg07 0.000000 0.000000 0.000000 0.000000 0.000000 0.000000 10.000000 
Rope3_Seg08 0.000000 0.000000 0.000000 0.000000 0.000000 0.000000 10.000000 
Rope3_Seg09 0.000000 0.000000 0.000000 0.000000 0.000000 0.000000 10.000000 
R_rear_hand01 0.000000 0.000000 0.000000 0.000000 0.000000 0.000000 10.000000 
R_rear_hand02 0.000000 0.000000 0.000000 0.000000 0.000000 0.000000 10.000000 
R_rear_hand03 0.000000 0.000000 0.000000 0.000000 0.000000 0.000000 10.000000 
Rope4_Seg01 0.000000 0.000000 0.000000 0.000000 0.000000 0.000000 10.000000 
Rope4_Seg02 0.000000 0.000000 0.000000 0.000000 0.000000 0.000000 10.000000 
Rope4_Seg03 0.000000 0.000000 0.000000 0.000000 0.000000 0.000000 10.000000 
Rope4_Seg04 0.000000 0.000000 0.000000 0.000000 0.000000 0.000000 10.000000 
Rope4_Seg05 0.000000 0.000000 0.000000 0.000000 0.000000 0.000000 10.000000 
Rope4_Seg06 0.000000 0.000000 0.000000 0.000000 0.000000 0.000000 10.000000 
Rope4_Seg07 0.000000 0.000000 0.000000 0.000000 0.000000 0.000000 10.000000 
Rope4_Seg08 0.000000 0.000000 0.000000 0.000000 0.000000 0.000000 10.000000 
Rope4_Seg09 0.000000 0.000000 0.000000 0.000000 0.000000 0.000000 10.000000 
L_rear_hand01 0.000000 0.000000 0.000000 0.000000 0.000000 0.000000 10.000000 
L_rear_hand02 0.000000 0.000000 0.000000 0.000000 0.000000 0.000000 10.000000 
L_rear_hand03 0.000000 0.000000 0.000000 0.000000 0.000000 0.000000 10.000000 
#Beginning of Data. Separated by tabs
#Fr	Tx	Ty	Tz	Rx	Ry	Rz	SF
[MASTER]
8 0.000000 0.000000 0.000000 0.001660 0.001660 0.001660 0.000000
9 0.000000 0.000000 0.000000 0.001660 0.001660 0.001660 0.000000
[root]
8 -34.321751 -62.822117 1458.628540 -89.053421 -7.449641 -89.829773 1460.384155
9 -19.854450 -62.822117 1435.155151 -89.421196 -7.576890 -89.830345 1436.666626
[chest]
8 -84.512650 -34.090519 0.000000 -0.307809 -0.743092 156.385437 91.129311
9 -84.512650 -34.090519 0.000000 -0.307809 -0.743092 156.385437 91.129311
[L_mid_tent01]
8 23.228750 24.509907 -223.761200 -13.919823 13.512973 -16.809959 226.294907
9 23.228750 24.509907 -223.761200 -15.772425 16.188297 -20.698471 226.294907
[R_mid_tent01]
8 23.228794 24.509907 226.238495 -158.685806 -18.573528 -27.109678 228.744751
9 23.228794 24.509907 226.238495 -158.988281 -15.303433 -25.993076 228.744751
[spine01]
8 -0.361383 -0.195265 0.000000 0.001815 0.001488 11.320961 0.410763
9 -0.361383 -0.195265 0.000000 0.001815 0.001488 11.320963 0.410763
[Bip01_Neck]
8 165.484543 71.581718 0.000119 175.896118 1.177290 24.871183 180.302734
9 165.484543 71.581718 0.000119 175.896118 1.177290 24.871183 180.302734
[L_humerus]
8 -13.983130 -135.272980 -120.471481 149.628769 9.923238 -156.213867 181.680161
9 -13.983130 -135.272980 -120.471481 149.628754 9.923236 -156.213867 181.680161
[R_humerus]
8 -13.983309 -135.273102 125.287651 -156.699188 -11.743878 -154.898071 184.909012
9 -13.983309 -135.273102 125.287651 -156.699188 -11.743876 -154.898056 184.909012
[weapon_bone]
8 235.964890 -300.705902 0.000000 0.000000 -89.951546 -128.212341 382.234833
9 235.964890 -300.705902 0.000000 0.000000 -89.951546 -128.212341 382.234833
[Bip01_Head]
8 179.663712 77.989029 -1.800930 2.775540 4.055749 -41.001163 195.868805
9 179.663712 77.989021 -1.800931 2.555773 3.167756 -41.079796 195.868805
[eye_left_bone]
8 -24.626970 125.451866 -64.772606 0.000000 -90.000000 -99.840431 143.318359
9 -24.626970 125.451866 -64.772606 0.000000 -90.000000 -99.840431 143.318359
[eye_right_bone]
8 -24.626970 125.451866 64.327362 0.000000 -89.965736 80.156380 143.117676
9 -24.626970 125.451866 64.327362 0.000000 -89.965736 80.156380 143.117676
[L_forearm]
8 322.776093 0.000000 -0.000119 0.000842 -0.002191 -132.067245 322.776093
9 322.776093 0.000000 -0.000119 0.000842 -0.002191 -132.067245 322.776093
[L_front_hand]
8 241.149185 -0.042021 -3.300071 34.924938 -1.504361 -39.932201 241.171753
9 241.149185 -0.042021 -3.300071 75.102203 -1.502332 -39.930298 241.171753
[L_weapon_bone]
8 156.183838 0.000000 0.000000 0.000014 0.000007 0.000001 156.183838
9 156.183838 0.000000 0.000000 0.000014 0.000007 0.000001 156.183838
[L_front_hand01_01]
8 86.095154 20.947098 -0.655860 -0.236541 -0.553115 60.793644 88.609184
9 86.095154 20.947098 -0.655860 -0.174533 -0.576193 54.849087 88.609184
[L_front_hand02_01]
8 86.935165 -11.437475 24.513514 136.610199 -51.493385 -39.967186 91.046425
9 86.935165 -11.437475 24.513514 131.775528 -47.224491 -33.602135 91.046425
[L_front_hand03_01]
8 86.637497 -14.123976 -20.424902 -137.242401 49.755051 -42.208645 90.126129
9 86.637497 -14.123976 -20.424902 -132.631958 45.541916 -35.979065 90.126129
[L_front_hand01_02]
8 71.020905 -0.000179 0.000030 0.000979 0.002133 -40.716900 71.020905
9 71.020905 -0.000179 0.000030 0.000784 0.002212 -50.976543 71.020905
[L_front_hand02_02]
8 71.020927 -0.000119 0.000060 0.000979 0.002133 -40.716900 71.020927
9 71.020927 -0.000119 0.000060 0.000784 0.002212 -50.976543 71.020927
[L_front_hand03_02]
8 71.020905 -0.000060 0.000060 0.000979 0.002133 -40.716900 71.020905
9 71.020905 -0.000060 0.000060 0.000784 0.002212 -50.976543 71.020905
[R_forearm]
8 322.776428 -0.000060 0.000030 0.244684 0.084396 -126.001297 322.776428
9 322.776428 -0.000060 0.000030 0.244684 0.084396 -126.001297 322.776428
[R_front_hand]
8 238.847015 -0.006795 2.210259 112.247330 0.238004 -48.449421 238.857239
9 238.847015 -0.006795 2.210259 75.115578 0.237621 -48.452011 238.857239
[R_weapon_bone]
8 155.664093 0.002503 -0.000030 0.003487 0.001180 -90.988930 155.664078
9 155.664093 0.002503 -0.000030 0.003487 0.001180 -90.988930 155.664078
[R_front_hand01_01]
8 87.624611 14.231146 22.918642 -154.633499 -59.950619 61.746044 91.683487
9 87.624611 14.231146 22.918642 -154.633499 -59.950619 61.746044 91.683487
[R_front_hand02_01]
8 89.356956 14.367283 -19.491137 154.602661 58.302849 63.744389 92.579636
9 89.356956 14.367283 -19.491137 154.602661 58.302849 63.744389 92.579636
[R_front_hand03_01]
8 87.286232 -22.307278 -0.143439 0.162155 -0.423168 -75.767921 90.091743
9 87.286232 -22.307278 -0.143439 0.162155 -0.423168 -75.767921 90.091743
[R_front_hand01_02]
8 71.020905 0.000060 0.000119 0.002283 0.000544 63.191750 71.020905
9 71.020905 0.000060 0.000119 0.002244 0.000688 55.908585 71.020905
[R_front_hand02_02]
8 71.020844 -0.000030 -0.000119 0.002283 0.000544 63.191750 71.020836
9 71.020844 -0.000030 -0.000119 0.002244 0.000688 55.908585 71.020836
[R_front_hand03_02]
8 71.020905 0.000000 0.000030 0.002283 0.000544 63.191750 71.020905
9 71.020905 0.000000 0.000030 0.002244 0.000688 55.908585 71.020905
[null_rope01_connect]
8 328.732483 0.000000 -0.000238 -110.203728 -71.306488 -137.326645 328.732483
9 328.732483 0.000000 -0.000238 -105.930214 -67.946152 -138.147675 328.732483
[Rope1_Seg01]
8 0.000000 0.000000 0.000000 75.601204 -21.165596 -143.106003 0.000000
9 0.000000 0.000000 0.000000 81.318260 -20.847614 -148.755615 0.000000
[Rope1_Seg02]
8 139.999863 -0.000179 0.000000 -12.835382 15.662948 2.208113 139.999863
9 139.999863 -0.000179 0.000000 -8.844328 11.979951 2.438896 139.999863
[Rope1_Seg03]
8 139.999924 0.000060 -0.000060 -33.192947 31.448072 16.721592 139.999924
9 139.999924 0.000060 -0.000060 -21.408792 22.057619 9.481448 139.999924
[Rope1_Seg04]
8 139.999924 -0.000060 -0.000119 -14.608180 10.664734 18.047417 139.999924
9 139.999924 -0.000060 -0.000119 -21.250475 29.268955 42.940762 139.999924
[Rope1_Seg05]
8 139.999832 0.000119 -0.000060 38.775684 -0.651882 -39.652679 139.999832
9 139.999832 0.000119 -0.000060 5.744246 5.475073 -21.090109 139.999832
[Rope1_Seg06]
8 139.999954 0.000119 -0.000060 21.507315 -8.877357 -10.693591 139.999954
9 139.999954 0.000119 -0.000060 35.198116 -0.554620 -32.905972 139.999954
[Rope1_Seg07]
8 139.999985 0.000060 0.000000 5.540940 -3.347711 -2.023015 139.999985
9 139.999985 0.000060 0.000000 11.367235 -3.691449 -5.748259 139.999985
[Rope1_Seg09]
8 121.602913 0.000119 -0.000089 -89.793175 -1.359789 0.847147 121.602913
9 121.602913 0.000119 -0.000089 -89.793175 -1.359789 0.847147 121.602913
[L_mid_hand01]
8 103.859421 1.038730 8.195221 106.855484 -31.239275 -9.461397 104.187431
9 103.859421 1.038730 8.195221 106.855484 -31.239275 -9.461397 104.187431
[L_mid_hand02]
8 105.572853 -4.139662 -10.864139 -142.331345 25.752670 -28.774628 106.211075
9 105.572853 -4.139662 -10.864139 -142.331345 25.752670 -28.774628 106.211075
[L_mid_hand03]
8 104.641464 17.579376 -3.913581 -16.122810 9.734291 34.223598 106.179977
9 104.641464 17.579376 -3.913581 -16.122810 9.734291 34.223598 106.179977
[null_rope02_connect]
8 328.732849 0.000179 -0.000119 -107.713043 61.462387 -48.951832 328.732849
9 328.732849 0.000179 -0.000119 -112.832420 63.766727 -53.648476 328.732849
[Rope2_Seg01]
8 0.000148 0.000081 -0.000135 80.275841 -29.270302 -99.502029 0.000216
9 0.000148 0.000081 -0.000132 89.510979 -30.117992 -115.707214 0.000214
[Rope2_Seg02]
8 139.999741 -0.000060 -0.000119 -0.336514 8.946321 -4.004036 139.999756
9 139.999741 -0.000060 -0.000119 -1.199523 15.397996 -3.160387 139.999756
[Rope2_Seg03]
8 140.000107 0.000030 0.000000 -1.368077 10.983926 -3.285492 140.000107
9 140.000107 0.000030 0.000000 -3.531762 18.536707 -2.851086 140.000107
[Rope2_Seg04]
8 139.999802 0.000000 -0.000060 -4.887205 14.005018 -1.815901 139.999802
9 139.999802 0.000000 -0.000060 -11.495767 21.785238 -0.552574 139.999802
[Rope2_Seg05]
8 139.999985 -0.000060 0.000119 9.314577 -7.823974 -5.557075 139.999985
9 139.999985 -0.000060 0.000119 5.986629 -2.572640 -3.264004 139.999985
[Rope2_Seg06]
8 139.999893 -0.000030 -0.000119 10.007747 -21.746162 -5.271989 139.999893
9 139.999893 -0.000030 -0.000119 15.774327 -22.150284 -7.795294 139.999893
[Rope2_Seg07]
8 139.999893 0.000060 -0.000060 2.223884 -10.157152 -1.313389 139.999893
9 139.999893 0.000060 -0.000060 3.958616 -14.030203 -1.413024 139.999893
[Rope2_Seg09]
8 121.338966 0.000089 -0.000060 33.793236 -1.359788 -0.847141 121.338966
9 121.338966 0.000089 -0.000060 33.793236 -1.359788 -0.847141 121.338966
[R_mid_hand01]
8 104.680779 11.144459 -10.335981 -41.523792 25.424656 28.595957 105.778534
9 104.680779 11.144459 -10.335981 -41.523792 25.424656 28.595957 105.778534
[R_mid_hand02]
8 104.070427 2.443552 8.231699 72.847389 -32.746803 10.013901 104.424065
9 104.070427 2.443552 8.231699 72.847389 -32.746803 10.013901 104.424065
[R_mid_hand03]
8 106.028137 -11.221827 -5.996406 -167.901306 10.259192 -37.009720 106.788818
9 106.028137 -11.221827 -5.996406 -167.901306 10.259192 -37.009720 106.788818
[spine02]
8 129.756927 0.001550 0.000119 0.001147 -1.797837 -7.854275 129.756927
9 129.756927 0.001550 0.000119 0.001147 -1.797837 -7.854275 129.756927
[spine03]
8 79.115631 0.000000 -0.000119 1.459971 -2.848092 23.765963 79.115631
9 79.115631 0.000000 -0.000119 1.459971 -2.848092 23.765963 79.115631
[pelvis]
8 169.435242 0.051022 0.000000 -0.000005 0.000003 -4.322055 169.435257
9 169.435242 0.051022 0.000000 -0.000005 0.000003 -4.322055 169.435257
[null_rope03_connect]
8 -1.257226 -2.466202 137.391083 53.978893 -84.592888 20.511681 137.418976
9 -1.257226 -2.466202 137.391083 57.065403 -84.837219 17.539751 137.418976
[null_rope04_connect]
8 -1.259640 -2.480268 -137.844437 53.978893 -84.592888 20.511681 137.872513
9 -1.259640 -2.480268 -137.844437 57.065403 -84.837219 17.539751 137.872513
[Rope3_Seg01]
8 0.000000 0.000000 0.000000 -126.537277 9.217662 -56.512257 0.000000
9 0.000000 0.000000 0.000000 -128.107391 4.308597 -56.800179 0.000000
[Rope3_Seg02]
8 139.999924 -0.000119 0.000060 -0.651903 6.067332 2.998520 139.999924
9 139.999924 -0.000119 0.000060 -0.390269 4.545890 3.223644 139.999924
[Rope3_Seg03]
8 139.999924 -0.000119 0.000119 -0.229307 8.307231 4.265387 139.999924
9 139.999924 -0.000119 0.000119 -0.173309 6.044289 4.381574 139.999924
[Rope3_Seg04]
8 139.999924 0.000119 0.000000 0.918324 11.711013 6.358445 139.999924
9 139.999924 0.000119 0.000000 0.337950 8.202483 6.276587 139.999924
[Rope3_Seg05]
8 139.999924 -0.000238 0.000060 5.155440 18.240368 11.127333 139.999924
9 139.999924 -0.000238 0.000060 2.108445 11.899947 11.214384 139.999924
[Rope3_Seg06]
8 139.999893 -0.000119 -0.000060 5.065289 10.477150 3.832400 139.999893
9 139.999893 -0.000119 -0.000060 3.759889 10.872429 5.973754 139.999893
[Rope3_Seg07]
8 139.999771 0.000060 -0.000119 1.559833 -0.470374 -3.492342 139.999771
9 139.999771 0.000060 -0.000119 4.123558 5.972709 -2.573407 139.999771
[Rope3_Seg08]
8 139.999985 -0.000060 0.000000 1.201250 -0.675340 -2.909056 139.999985
9 139.999985 -0.000060 0.000000 3.218240 4.337620 -1.599504 139.999985
[Rope3_Seg09]
8 90.185997 -0.000179 -0.000060 89.793228 -1.359877 -0.847183 90.185997
9 90.185997 -0.000179 -0.000060 89.793228 -1.359877 -0.847183 90.185997
[R_rear_hand01]
8 103.366196 -6.073594 -10.757982 -161.551193 16.666374 -30.088671 104.101845
9 103.366196 -6.073594 -10.757982 -161.551193 16.666374 -30.088671 104.101845
[R_rear_hand02]
8 100.509819 12.039542 -7.992327 -34.280552 19.289745 28.875523 101.543350
9 100.509819 12.039542 -7.992327 -34.280552 19.289745 28.875523 101.543350
[R_rear_hand03]
8 101.539970 5.215704 5.435467 83.366440 -30.933914 7.284830 101.819031
9 101.539970 5.215704 5.435467 83.366440 -30.933914 7.284830 101.819031
[Rope4_Seg01]
8 0.000000 0.000000 0.000000 39.738373 6.333683 -38.717628 0.000000
9 0.000000 0.000000 0.000000 28.647833 -5.008815 -44.599281 0.000000
[Rope4_Seg02]
8 139.999985 0.000060 0.000119 11.710885 -21.546585 -22.025326 139.999985
9 139.999985 0.000060 0.000119 14.174666 -11.115828 -23.992126 139.999985
[Rope4_Seg03]
8 139.999924 0.000000 -0.000238 4.582155 -20.906267 -16.510376 139.999924
9 139.999924 0.000000 -0.000238 4.925200 -11.599284 -16.603371 139.999924
[Rope4_Seg04]
8 139.999985 0.000000 0.000119 1.128376 -12.835604 -10.211950 139.999985
9 139.999985 0.000000 0.000119 1.274251 -6.659138 -10.640210 139.999985
[Rope4_Seg05]
8 139.999802 -0.000060 -0.000119 0.113966 -4.642218 -2.770140 139.999802
9 139.999802 -0.000060 -0.000119 0.163080 -4.383360 -3.311181 139.999802
[Rope4_Seg06]
8 139.999924 0.000000 0.000060 0.414285 -2.031727 0.162494 139.999924
9 139.999924 0.000000 0.000060 0.389928 -4.653356 -0.053782 139.999924
[Rope4_Seg07]
8 139.999802 0.000000 0.000000 0.939676 -0.698729 2.756031 139.999802
9 139.999802 0.000000 0.000000 1.015216 -6.158376 2.062110 139.999802
[Rope4_Seg08]
8 139.999924 0.000000 0.000119 -0.839532 -1.311166 1.752373 139.999924
9 139.999924 0.000000 0.000119 -0.769088 -4.601892 0.334504 139.999924
[Rope4_Seg09]
8 90.185791 0.000060 0.000060 -135.617828 2.228885 0.850567 90.185791
9 90.185791 0.000060 0.000060 -135.617828 2.228885 0.850567 90.185791
[L_rear_hand01]
8 101.696655 -8.392275 -7.654577 -34.454281 -18.946800 151.655121 102.329041
9 101.696655 -8.392275 -7.654577 -34.454281 -18.946800 151.655121 102.329041
[L_rear_hand02]
8 102.726799 -1.568258 5.773216 83.407906 30.330435 172.796509 102.900848
9 102.726799 -1.568258 5.773216 83.407906 30.330435 172.796509 102.900848
[L_rear_hand03]
8 104.552910 9.721220 -10.420293 -161.379868 -16.473232 -150.512238 105.519653
9 104.552910 9.721220 -10.420293 -161.379868 -16.473232 -150.512238 105.519653
